<svg id="图层_1" data-name="图层 1" xmlns="http://www.w3.org/2000/svg" viewBox="0 0 121 75"><defs><style>.cls-1{fill:#040000;}</style></defs><title>海马体新版logo</title><path d="M11.3,17.63l-.67-.13a12.65,12.65,0,0,0-6.69.76,1.62,1.62,0,0,1-.5.1,1.24,1.24,0,0,1-1.28-1.08,1.26,1.26,0,0,1,1-1.42,2.25,2.25,0,0,1,.36,0,15.69,15.69,0,0,0,4.2-.39,15.72,15.72,0,0,0,5.36-2.3,15.58,15.58,0,0,0,3.68-3.36A13.43,13.43,0,0,0,18,8a13.86,13.86,0,0,1,2.2.7A14.63,14.63,0,0,1,29,19.2a14.8,14.8,0,0,1-.83,8.65c-.17.38-.36.8-.56,1.17-.1.2-.25.47-.38.68a2.49,2.49,0,0,1,2.58,1.63l-.66.69a17.54,17.54,0,0,0-4.65,11.84,20.18,20.18,0,0,0,.7,5.11,32.28,32.28,0,0,1,.74,4.56,18.16,18.16,0,0,1-.14,5.32,10.62,10.62,0,0,1-2.37,4.7,7.82,7.82,0,0,1-7,2.88,7.07,7.07,0,0,1-5.12-3.11,6,6,0,0,1,.47-6.88,7,7,0,0,1,.92-.9,2.94,2.94,0,0,1,.79-.5.88.88,0,0,1,1,.4.81.81,0,0,1-.17,1,4.38,4.38,0,0,0-1.21,2,4.09,4.09,0,0,0,3.76,5.15,3.94,3.94,0,0,0,3.64-2,7,7,0,0,0,1-4.13,9,9,0,0,0-2.63-6,47.87,47.87,0,0,0-4.14-3.78,18.33,18.33,0,0,1-5.22-5.79,13.38,13.38,0,0,1,2-15.31A12.42,12.42,0,0,1,14,24.44a12,12,0,0,1,2.58-1.34,8.82,8.82,0,0,0,2.59-1.84A8.07,8.07,0,0,0,21,18.08a.18.18,0,0,0-.08-.19c-.09-.06-.19,0-.31.1l-.25.32a5.55,5.55,0,0,1-8.49.15A5.23,5.23,0,0,1,11.3,17.63Z"/><path id="_路径_" data-name="&lt;路径&gt;" class="cls-1" d="M90.08,17.49a54,54,0,0,1,5.71,0c0,.16-.12.18-.22.2l-.35.07a2.23,2.23,0,0,0-1.95,2.08c-.09.73-.12,1.46-.15,2.19s0,1.23,0,1.85q0,4.8,0,9.6c0,.5.07,1,.12,1.49a1.68,1.68,0,0,0,.69,1.18,3.36,3.36,0,0,0,1.41.68L96,37c-.05.09-.08.16-.1.16-3,.08-6,0-9.22,0,.18-.18.24-.28.32-.3s.4-.07.61-.11A3.85,3.85,0,0,0,89,36.26a2,2,0,0,0,.95-1.42,13.46,13.46,0,0,0,.18-1.75c0-3,0-6,0-9q0-2.07,0-4.14c0-.23,0-.45,0-.78a2.45,2.45,0,0,0-.51.89c-.16.31-.29.64-.43,1l-.4.88-.43,1-.39.88-.44,1-.4.88-.44,1-.4.88-.43,1-.4.88-.43,1-.39.89-.43,1-.4.88-.42,1-.37.9c-.13.33-.26.65-.41,1a2.77,2.77,0,0,1-.44.87c-.31-.17-.34-.48-.45-.72-1.19-2.71-2.36-5.43-3.56-8.14s-2.29-5.14-3.43-7.72c-.07-.16-.16-.3-.23-.44s-.18.15-.18.25c0,4.23,0,8.45,0,12.68a11.57,11.57,0,0,0,.17,1.84,2.61,2.61,0,0,0,2,2.25l1.08.3c0,.26-.18.23-.3.23H71c-.16,0-.35.07-.52-.23l.21-.08.5-.15a3,3,0,0,0,2.06-2.11,10.24,10.24,0,0,0,.41-3c.05-3.73,0-7.45.09-11.18a2.55,2.55,0,0,0-2.07-2.68c-.17,0-.33-.11-.49-.16s0,0,0-.07,0-.13.07-.13c1.87-.08,3.75,0,5.66,0,2.19,4.93,4.32,9.85,6.52,14.79a1.52,1.52,0,0,0,.48-.76Q86.8,24.9,89.72,18.3Z"/><path id="_路径_2" data-name="&lt;路径&gt;" class="cls-1" d="M35.43,17.46h7.82s.08.06.17.14a1.35,1.35,0,0,1-.28.17c-.25.08-.51.12-.76.2A1.93,1.93,0,0,0,41,19.57a3.87,3.87,0,0,0-.06.61q0,3.13,0,6.25a3.19,3.19,0,0,0,0,.38,2.79,2.79,0,0,0,.51.09h9.77a4,4,0,0,0,.46-.06,1.53,1.53,0,0,0,.08-.34c0-2.2.08-4.4-.1-6.6a2.3,2.3,0,0,0-.29-1.09,2.1,2.1,0,0,0-1.4-1,1.91,1.91,0,0,1-.83-.21c0-.06.06-.14.08-.14l7.48,0c.16,0,.35-.06.47.12s-.19.18-.31.23a9.79,9.79,0,0,0-1,.36,1.61,1.61,0,0,0-1,1.28A13.63,13.63,0,0,0,54.85,21q0,5.33,0,10.65c0,.88,0,1.76,0,2.64,0,.32,0,.64.07,1A1.6,1.6,0,0,0,56,36.65c.24.1.51.14.76.22l.48.16c-.06.09-.08.16-.11.17-.82.08-7.49.05-8.17,0a1.38,1.38,0,0,1,.31-.2c.31-.08.63-.12.94-.21A5.08,5.08,0,0,0,51,36.4a1.1,1.1,0,0,0,.64-1c0-.44.08-.88.09-1.32,0-2.05,0-4.11,0-6.16a2.81,2.81,0,0,0,0-.34c-.27-.23-.57-.15-.86-.15h-9l-.9,0a3.44,3.44,0,0,0-.09.54c0,2.2,0,4.4,0,6.6,0,1.14.23,1.82,1.76,2.25l.48.15c0,.19-.08.22-.2.22H36.12c-.25,0-.5,0-.74,0,0-.22.09-.25.19-.29.41-.15.84-.27,1.24-.44a1.45,1.45,0,0,0,.92-1.29c.06-.7.14-1.4.15-2.11q0-6.16,0-12.33a11.86,11.86,0,0,0-.11-1.22A1.75,1.75,0,0,0,36.54,18c-.25-.09-.51-.13-.76-.21s-.25-.09-.37-.14Z"/><path id="_路径_3" data-name="&lt;路径&gt;" class="cls-1" d="M74.91,46.16c.78.48.83.53,1,.9a4.78,4.78,0,0,1-1,0H71.94c-.14.21,0,.36,0,.51a12.1,12.1,0,0,0,3.7,4.75c.12.09.22.19.33.29l-1.6,1.67a2.41,2.41,0,0,1-.28-.27,12.05,12.05,0,0,1-1.78-3.53,14.13,14.13,0,0,1-.68-3.06,1,1,0,0,0-.1-.3s-.08,0-.12,0a.15.15,0,0,0-.1.06.43.43,0,0,0-.05.18c0,.17,0,.34,0,.51q0,2.76,0,5.51c0,.23,0,.46,0,.73a4.42,4.42,0,0,0,1.36,0c.21,0,.4-.22.64-.36a1.5,1.5,0,0,1,.64.49c-.06.16-.18.14-.28.14H71.93l-.58,0a2.72,2.72,0,0,0-.07,1c0,.3,0,.6,0,.9s0,.64,0,1a2.41,2.41,0,0,1-.44.25,2.34,2.34,0,0,1-1.17.15,3.07,3.07,0,0,1-.06-.42c0-.75,0-1.5,0-2.24,0-.19,0-.37,0-.6-.7-.09-1.39,0-2-.06,0-.16,0-.21.13-.21h1.87a1.65,1.65,0,0,0,.07-.33q0-1.6,0-3.2a1.08,1.08,0,0,0-.06-.22c-.26.19-.33.47-.48.68s-.31.46-.47.68-.34.44-.52.65-.37.42-.56.61-.4.39-.6.58l-.63.54-.63.52c0,.56,0,1.1,0,1.63,0,.17,0,.34,0,.51a.54.54,0,0,1-.3.52,2.3,2.3,0,0,1-1.28.34A1.08,1.08,0,0,1,64,57c0-2.2,0-4.4,0-6.6a1.74,1.74,0,0,0-.05-.65c-.26.12-.34.36-.49.53s-.28.38-.43.56a1.78,1.78,0,0,1-.49.52c.5-1.4,1-2.76,1.46-4.12A26.12,26.12,0,0,0,65,43c.32-.07.56.1.81.17s.49.16.73.24l.77.28c0,.37-.26.44-.54.49-.19.49-.38,1-.59,1.48s-.44,1-.66,1.45c.14.19.34.2.51.27a.3.3,0,0,1,.1.51.8.8,0,0,1-.22.12l-.17.07c-.08.48-.1,5.54,0,6.25.08-.06.16-.09.2-.14a23.16,23.16,0,0,0,3-6.54c0-.14,0-.29.08-.45a2,2,0,0,0-.83-.08H66.57c0-.16,0-.2.11-.2h2.85a3.18,3.18,0,0,0,.07-.46c0-.85,0-1.71,0-2.56,0-.21,0-.42,0-.67a16.25,16.25,0,0,1,2.08.26.31.31,0,0,1-.06.43,4.51,4.51,0,0,1-.37.3c0,.86,0,1.73,0,2.63a1.78,1.78,0,0,0,.33.07h2.11a.8.8,0,0,0,.58-.21C74.5,46.5,74.7,46.34,74.91,46.16Z"/><path id="_复合路径_" data-name="&lt;复合路径&gt;" class="cls-1" d="M97.81,27.65A9.92,9.92,0,0,1,100.86,20a10.42,10.42,0,0,1,5.73-2.67,10.67,10.67,0,0,1,4.79.26,9.38,9.38,0,0,1,6.84,7.53A10.1,10.1,0,0,1,110,37.21a10.79,10.79,0,0,1-6-.6A9.63,9.63,0,0,1,97.81,27.65Zm3.39-.05c0,.5.07,1.18.16,1.85a11.45,11.45,0,0,0,1.2,3.93,7.65,7.65,0,0,0,1.94,2.36,5.77,5.77,0,0,0,7.63-.4A9,9,0,0,0,114.2,32a13.69,13.69,0,0,0,.14-9.06,9.15,9.15,0,0,0-2.26-3.72,5.8,5.8,0,0,0-8,0,8.66,8.66,0,0,0-2,3.17A16,16,0,0,0,101.2,27.6Z"/><path id="_复合路径_2" data-name="&lt;复合路径&gt;" class="cls-1" d="M116.3,47a30.53,30.53,0,0,1,0,4.2,1.75,1.75,0,0,1-1.4-.16c-.21-.1-.12-.35-.29-.54-.66,0-1.35,0-2,0a6.41,6.41,0,0,0,0,2,2.48,2.48,0,0,0,.35,0c.68,0,1.37,0,2.05,0a3.77,3.77,0,0,0,.75-.14,6.52,6.52,0,0,1,1.08-.3,1.84,1.84,0,0,1,.06.31q0,2.31,0,4.61a.92.92,0,0,1,0,.17.48.48,0,0,1-.48.13,1.78,1.78,0,0,1-1-.35l-.08-.72a11.77,11.77,0,0,0-2.65,0c-.14.24,0,.54-.12.79a2,2,0,0,1-1.53.34,1.65,1.65,0,0,1-.05-.68q0-4.29,0-8.59c0-.23,0-.46,0-.73-.77.09-1.06-.38-1.22-1-.19-.07-.26.06-.35.14l-1,.92-.33.28a1.87,1.87,0,0,1,.07-.85c0-.27.09-.54.13-.82a1.61,1.61,0,0,0-.93-.06c-.15.35-.3.71-.46,1.05s-.34.74-.54,1.09-.38.67-.59,1a5.5,5.5,0,0,1-.75,1c.29-1.32.6-2.51.82-3.72s.35-2.4.53-3.64a2.49,2.49,0,0,1,1.08.2,4.26,4.26,0,0,1,1.09.32.39.39,0,0,1-.2.39c-.1.08-.24.15-.28.25a15.9,15.9,0,0,0-.54,1.71,1.34,1.34,0,0,0,.83,0l.25-.95a2.25,2.25,0,0,1,.32.18l1,.87a1.25,1.25,0,0,0,.49-.52c.26-.42.49-.85.73-1.28.28.23.25.62.49.9a11.63,11.63,0,0,0,1.6,0,1.65,1.65,0,0,0,0-.39c-.13-.49-.28-1-.43-1.48l-.16-.52a1.55,1.55,0,0,1,.39,0,7,7,0,0,1,1.11.28,1,1,0,0,1,.65,1.59c-.06.15-.14.3-.23.49a2.37,2.37,0,0,0,.83.06h.75c.28-.32.2-.73.4-1.06.27,0,.41.28.6.43s.42.36.62.56a2.18,2.18,0,0,1,.55.58c-.11.08-.2.2-.3.21a1.6,1.6,0,0,0-.69.31,7.1,7.1,0,0,1-1.4.72c0-.51.21-.95.21-1.44a6.16,6.16,0,0,0-1.45-.06c-.49,0-1,0-1.47,0s-1,0-1.49,0a3.62,3.62,0,0,1-.29,1.67c.27.22.61.23.87.4a1.46,1.46,0,0,0,.87.17h.19a5.63,5.63,0,0,0,2.63-.39A1.58,1.58,0,0,1,116.3,47Zm-3.7,8.89a9.52,9.52,0,0,0,2.63,0,15,15,0,0,0,0-3,10,10,0,0,0-2.59,0A15.58,15.58,0,0,0,112.6,55.88Zm2.12-5.69a1.7,1.7,0,0,0,0-.27c0-.64,0-1.27,0-1.91a1.47,1.47,0,0,0-.09-.33c-.36,0-.69,0-1,0a3.28,3.28,0,0,0-1,.06,8.65,8.65,0,0,0,0,2.47A14.74,14.74,0,0,0,114.71,50.19Z"/><path id="_复合路径_3" data-name="&lt;复合路径&gt;" class="cls-1" d="M103.52,43.73c.08.57.09,13.11,0,13.67a1.55,1.55,0,0,1-1.59-.36l-.06-.65a1.74,1.74,0,0,0-.36-.08H99l-.29,0-.1.63a2.65,2.65,0,0,1-1.67.39A3.52,3.52,0,0,1,96.9,57a3.67,3.67,0,0,1,0-.38q0-6.09,0-12.17a2.06,2.06,0,0,1,.06-.72,3.14,3.14,0,0,1,1.3.29,2.43,2.43,0,0,0,1.06.19c.56,0,1.11,0,1.67,0a4.41,4.41,0,0,0,1.82-.28A6.59,6.59,0,0,1,103.52,43.73ZM101.91,56c0-.62,0-1.21,0-1.81a10.36,10.36,0,0,0-.06-1.79,4.93,4.93,0,0,0-1,0H99.73a3.22,3.22,0,0,0-1,.07c0,.61,0,1.21,0,1.8A9,9,0,0,0,98.74,56,15,15,0,0,0,101.91,56Zm0-11.45a4.17,4.17,0,0,0-1.06-.06c-.36,0-.72,0-1.09,0a2.46,2.46,0,0,0-1,.1c0,.59,0,1.18,0,1.77a9.23,9.23,0,0,0,.05,1.74.66.66,0,0,0,.16.06h2.75a.81.81,0,0,0,.24-.09Zm0,7.48a.69.69,0,0,0,0-.15c0-1.07,0-2.13,0-3.2a.68.68,0,0,0-.08-.22,16.28,16.28,0,0,0-3.11,0,9.25,9.25,0,0,0,0,1.19c0,.38,0,.77,0,1.15a5.53,5.53,0,0,0,0,1.18A14.75,14.75,0,0,0,101.85,52Z"/><path id="_复合路径_4" data-name="&lt;复合路径&gt;" class="cls-1" d="M39,47.64l-.92.79A7.85,7.85,0,0,1,38.54,47c.14-.43.3-.84.44-1.27s.27-.9.39-1.35.2-.87.31-1.33a1.42,1.42,0,0,1,.36,0l1.6.47a1.7,1.7,0,0,1,.2.09.27.27,0,0,1-.16.34,1,1,0,0,0-.55.67c-.05.13-.09.27-.15.44.19,0,.34,0,.48,0,1.24,0,2.48,0,3.72,0a1.12,1.12,0,0,0,.86-.33,5.17,5.17,0,0,1,.43-.35,2.09,2.09,0,0,1,1,.81c-.05.12-.17.12-.27.12h-6a.67.67,0,0,0-.69.35c-.17.31-.4.6-.62.92.28.18.52.35.78.48a1,1,0,0,0,.43.08c1,0,2.09,0,3.14,0a4.1,4.1,0,0,0,.82-.14l1.15-.29a15.58,15.58,0,0,1-.07,1.89c0,.62,0,1.23-.07,1.83.15.11.23,0,.3,0l.61-.5a3.88,3.88,0,0,1,1,.75.2.2,0,0,1-.23.21H46.68c-.19,0-.39,0-.55.09s-.06.08-.06.12Q46,52.53,45.9,54c0,.13,0,.25,0,.44a1.55,1.55,0,0,0,.32-.12,5.8,5.8,0,0,1,.72-.55,3.41,3.41,0,0,1,1,.82c-.21.18-.44.1-.64.11s-.47,0-.7,0l-.65,0c0,.18,0,.32-.07.46a10.48,10.48,0,0,1-.22,1.13,1.78,1.78,0,0,1-1.11,1.16,3.17,3.17,0,0,1-1.28.23,1.87,1.87,0,0,0-.45-1.11c-.28-.25-.6-.45-.91-.68.43,0,.85,0,1.27,0,.74,0,1-.21,1-1a.85.85,0,0,0,0-.2,1.48,1.48,0,0,0-.24-.05c-.69,0-3.3,0-3.74,0l-.15.66a2,2,0,0,1-1.57.27,2.37,2.37,0,0,1,0-.37c.09-1.06.19-2.13.28-3.19,0-.36,0-.72.06-1.09-.25-.17-.52-.09-.76-.12s-.27,0-.31-.2l1-.08A13.69,13.69,0,0,0,39,47.64Zm1.44,3.26c-.06.65-.14,1.22-.16,1.79a8.22,8.22,0,0,0-.08,1.71,16.71,16.71,0,0,0,2,0,11.42,11.42,0,0,0,1.93,0,.65.65,0,0,0,.07-.16c.06-1,.12-2,.17-3a1.49,1.49,0,0,0-.07-.34C43,50.89,41.77,50.88,40.43,50.9Zm4.1-3.46H41a.89.89,0,0,0-.23.06,14.87,14.87,0,0,0-.25,3.07.54.54,0,0,0,.17.06h3.38a1.34,1.34,0,0,0,.27-.07C44.49,49.56,44.49,48.54,44.54,47.44Z"/><path id="_复合路径_5" data-name="&lt;复合路径&gt;" class="cls-1" d="M60.07,43.29a4.07,4.07,0,0,1,1.11.92c-.11.2-.27.17-.42.17H56.92l-.53,0a12.66,12.66,0,0,0,0,1.77,2,2,0,0,0,.38.09h1.09a.85.85,0,0,0,.63-.25c.19-.17.39-.33.59-.5a4.68,4.68,0,0,1,1.07.84s0,.08,0,.12-.26.1-.41.1H56.45a4.84,4.84,0,0,0,0,1.91,2.45,2.45,0,0,0,.35.05c.49,0,1,0,1.47,0a1,1,0,0,0,.75-.28c.17-.16.35-.3.55-.46a3.5,3.5,0,0,1,1.1.91c-.12.2-.29.15-.43.15H56.45a6.32,6.32,0,0,0,0,2.16,2.38,2.38,0,0,0,.35.05h2.05a.92.92,0,0,0,.69-.27c.17-.16.36-.3.55-.46a4.81,4.81,0,0,1,1,.75.49.49,0,0,1,.13.28,2.12,2.12,0,0,1,0,.38c0,1,0,2.09,0,3.14A11.14,11.14,0,0,1,61,56.49a1.23,1.23,0,0,1-.89,1c-.3.1-.61.17-1,.26a1.91,1.91,0,0,1-.18-.42,1.16,1.16,0,0,0-.55-.89s0-.07,0-.11c.23,0,.47,0,.7,0a.63.63,0,0,0,.65-.58,2.08,2.08,0,0,0,0-.38q0-1.73,0-3.46a2.16,2.16,0,0,0,0-.3c-.18-.17-.38-.12-.56-.12H52.08a1.31,1.31,0,0,0-.78.22,1.7,1.7,0,0,1-1.24.3,1.73,1.73,0,0,1,0-.29q0-4.07,0-8.14a2.82,2.82,0,0,1,0-.29,1.62,1.62,0,0,1,.31.08l1,.53A1.22,1.22,0,0,0,52,44h6.86a.79.79,0,0,0,.58-.21C59.62,43.64,59.85,43.48,60.07,43.29ZM54.66,49a4.48,4.48,0,0,0-1-.05h-1a3.76,3.76,0,0,0-1,0,6.3,6.3,0,0,0,0,2.11,13,13,0,0,0,3,0A8.3,8.3,0,0,0,54.66,49Zm-3-.42c.22,0,.39,0,.56,0l2.36,0s.07,0,.11-.06a4.59,4.59,0,0,0-.05-1.84,4.89,4.89,0,0,0-1,0h-1a3.25,3.25,0,0,0-1,.07A12.71,12.71,0,0,0,51.63,48.55Zm0-4.11a6.86,6.86,0,0,0,0,1.8c.18,0,.32,0,.47,0l2.36,0a.5.5,0,0,0,.17-.07,4.39,4.39,0,0,0,0-1.76A19.22,19.22,0,0,0,51.63,44.44Z"/><path id="_路径_4" data-name="&lt;路径&gt;" class="cls-1" d="M60.12,37l.45-.18c.4-.17.82-.31,1.2-.52a1.47,1.47,0,0,0,.78-1.2c0-.44.09-.88.09-1.32q.05-6.55.09-13.11a11.69,11.69,0,0,0-.12-1.22,1.7,1.7,0,0,0-1.14-1.43,7.75,7.75,0,0,0-.93-.26c-.13,0-.3,0-.32-.22,0,0,.08-.1.12-.1h7.74s.08.06.13.09-.11.19-.21.22l-.76.2a1.79,1.79,0,0,0-1.34,1.48,5.36,5.36,0,0,0-.1,1c0,1.55,0,3.11,0,4.66q0,4.44,0,8.88c0,.38,0,.76,0,1.14a1.5,1.5,0,0,0,1,1.43c.32.14.66.22,1,.33l.48.16c-.05.09-.07.16-.1.17A72,72,0,0,1,60.12,37Z"/><path id="_路径_5" data-name="&lt;路径&gt;" class="cls-1" d="M96,46.17l.65.5c0,.2-.14.19-.24.19H95.16c-.17,0-.33,0-.51,0a5.32,5.32,0,0,0,0,1.26l.51.36a4.76,4.76,0,0,1,1,.94,2.1,2.1,0,0,1,.47,1.17,1,1,0,0,1-.77,1.09,4.81,4.81,0,0,1-.51.09A7,7,0,0,1,95,50.38,7.28,7.28,0,0,0,94.67,49a14.24,14.24,0,0,0-.07,2c0,.66,0,1.32,0,2v4a2.23,2.23,0,0,1-1.51.48,1.28,1.28,0,0,1-.09-.72c0-1.67,0-3.33,0-5a1.26,1.26,0,0,0-.09-.66,2.71,2.71,0,0,0-.43.67c-.14.24-.28.48-.43.71s-.28.43-.43.63a2.18,2.18,0,0,1-.55.56c0-.15.06-.3.12-.45a34.86,34.86,0,0,0,1.33-5.14,10.94,10.94,0,0,0,.16-1.14c-.5-.19-1,0-1.46-.14a.46.46,0,0,1,0-.09s0,0,0,0l1.68-.08c0-.19.05-.35.05-.52,0-.92,0-1.84,0-2.75,0-.16-.05-.34.14-.52a13.37,13.37,0,0,1,1.94.36c0,.32-.28.39-.48.6,0,.88,0,1.82,0,2.77A1.25,1.25,0,0,0,96,46.17Z"/><path id="_复合路径_6" data-name="&lt;复合路径&gt;" class="cls-1" d="M77.73,43.8a1.8,1.8,0,0,1,1,.24,2.94,2.94,0,0,0,2.06.13c.39-.08.78-.23,1.15-.34.21.12.15.31.15.47q0,2.59,0,5.19,0,1.67,0,3.33c0,.21,0,.42,0,.64a1.48,1.48,0,0,1-1,0c-.36-.1-.62-.28-.59-.71a.63.63,0,0,0-.07-.2H79.34c-.2.26,0,.56-.16.81a1.83,1.83,0,0,1-1.4.33c-.17-.2-.09-.44-.09-.67q0-4,0-8.07c0-.26,0-.51,0-.77C77.7,44.05,77.72,43.95,77.73,43.8Zm2.75,8.44a2.93,2.93,0,0,0,.08-1c0-.3,0-.6,0-.89s0-.64,0-1a3,3,0,0,0-.06-.9,4.11,4.11,0,0,0-1.25,0c0,.62,0,1.21,0,1.8a10.49,10.49,0,0,0,.06,1.85,3.29,3.29,0,0,0,.33,0Zm-1.16-4a2.72,2.72,0,0,0,1.18,0,1.38,1.38,0,0,0,.05-.26q0-1.57,0-3.14a.86.86,0,0,0-.07-.21,3.8,3.8,0,0,0-1.19,0,1.71,1.71,0,0,0,0,.27q0,1.57,0,3.14A.81.81,0,0,0,79.32,48.19Z"/><path id="_路径_6" data-name="&lt;路径&gt;" class="cls-1" d="M82.46,49.13c.27-.42.52-.77.74-1.15a8.11,8.11,0,0,0,.55-1.15,9,9,0,0,0,.36-1.29,3.66,3.66,0,0,0,.1-1.28c-.42-.2-.89,0-1.35-.17.07-.07.1-.14.14-.15.19,0,.38,0,.58,0,1.09,0,2.18,0,3.27,0a4.12,4.12,0,0,0,1.69-.28,1.25,1.25,0,0,1,.69-.16,2.63,2.63,0,0,1,0,.31c0,.81,0,1.62-.07,2.43a7.06,7.06,0,0,1-.09.83,1.54,1.54,0,0,1-1.2,1.35c-.33.09-.66.15-1,.22-.16-.38-.13-.82-.42-1.09a10.31,10.31,0,0,0-.92-.68l.66.06c.25,0,.51.06.76.06a.54.54,0,0,0,.57-.42.87.87,0,0,0,0-.19,20.44,20.44,0,0,0,.1-2.1,1.52,1.52,0,0,0-.89-.11,2.61,2.61,0,0,0-.87,0,1.14,1.14,0,0,0-.15.63,6.71,6.71,0,0,1-.35,1.49A4,4,0,0,1,84.32,48a7.61,7.61,0,0,1-1.62,1.13A.92.92,0,0,1,82.46,49.13Z"/><path id="_路径_7" data-name="&lt;路径&gt;" class="cls-1" d="M105.95,54.85l.44-.28a1.31,1.31,0,0,0,0-.24q0-1.31,0-2.62c0-1,0-1.92,0-2.88a.8.8,0,0,1,.11-.58,1.83,1.83,0,0,1,.29,0l1.63.27c.1.36-.23.43-.38.66v4.49a1.63,1.63,0,0,0,.36-.06c.33-.15.65-.31,1-.46l.34-.14c.13.17,0,.26-.06.35a18.7,18.7,0,0,1-2,2.46,1.5,1.5,0,0,0-.56.9s-.08.08-.13.12A9.76,9.76,0,0,1,105.95,54.85Z"/><path id="_复合路径_7" data-name="&lt;复合路径&gt;" class="cls-1" d="M83.31,53.73a43.39,43.39,0,0,1,0-4.66,1.21,1.21,0,0,1,.35,0,2.72,2.72,0,0,1,.66.22,1.82,1.82,0,0,0,1,.23h.32a6.56,6.56,0,0,0,2.89-.4.79.79,0,0,1,.17,0c.13,0,.12.13.12.21q0,2.08,0,4.16a1,1,0,0,1-.05.21,1.84,1.84,0,0,1-1.44-.33l-.09-.74a8.88,8.88,0,0,0-2.47,0l-.07.83A1.72,1.72,0,0,1,83.31,53.73Zm3.94-1.54a8.31,8.31,0,0,0,0-2.37,9.08,9.08,0,0,0-2.39,0,8.89,8.89,0,0,0,0,2.33A9.31,9.31,0,0,0,87.25,52.2Z"/><path id="_路径_8" data-name="&lt;路径&gt;" class="cls-1" d="M38,46.75c-.07.38-.14.75-.22,1.13-.41,1.77-.81,3.53-1.23,5.29a1.41,1.41,0,0,0,.1,1A2.64,2.64,0,0,1,36.39,57a1.39,1.39,0,0,1-.58.53,13.24,13.24,0,0,1-.38-1.75c-.15-.6-.29-1.2-.43-1.8s-.4-1.11-.51-1.73c.45,0,.67.41,1.05.58.08-.19.17-.35.23-.53l1.8-4.79c.08-.22.17-.44.26-.65,0,0,.1-.06.15-.09Z"/><path id="_路径_9" data-name="&lt;路径&gt;" class="cls-1" d="M88,57.62a1.18,1.18,0,0,1-.13-.2l-1.11-3.57c.11-.1.21,0,.31,0a6.72,6.72,0,0,1,1.5.69,2.54,2.54,0,0,1,.82.79,1.23,1.23,0,0,1-.33,1.79A3.09,3.09,0,0,1,88,57.62Z"/><path id="_路径_10" data-name="&lt;路径&gt;" class="cls-1" d="M78.93,53.92c.05,0,.1.06.11.1a4.07,4.07,0,0,1,0,2.26,2.63,2.63,0,0,1-.32.69,1.14,1.14,0,0,1-.93.49,1,1,0,0,1-1-.89.68.68,0,0,1,.25-.73,8.84,8.84,0,0,0,1.67-1.74A1.31,1.31,0,0,1,78.93,53.92Z"/><path id="_路径_11" data-name="&lt;路径&gt;" class="cls-1" d="M83.62,53.88a5.55,5.55,0,0,1,1.68,1,2.37,2.37,0,0,1,.51.64,1.21,1.21,0,0,1-.52,1.64,1.29,1.29,0,0,1-.88.21,15.16,15.16,0,0,1-.37-1.67Z"/><path id="_路径_12" data-name="&lt;路径&gt;" class="cls-1" d="M81.35,57.44l-.64-3.18c.1-.1.19,0,.28,0a3.94,3.94,0,0,1,1.22.68,1.93,1.93,0,0,1,.61.81,1,1,0,0,1,0,.81A1.61,1.61,0,0,1,81.35,57.44Z"/><path id="_路径_13" data-name="&lt;路径&gt;" class="cls-1" d="M57.86,55.39s-.08-.05-.09-.08l-1-2.77s0-.08,0-.15a3.89,3.89,0,0,1,1.85.92,1.47,1.47,0,0,1,.24.3A1,1,0,0,1,58.7,55,1.92,1.92,0,0,1,57.86,55.39Z"/><path id="_路径_14" data-name="&lt;路径&gt;" class="cls-1" d="M36.51,46.18l-1.43-2.92a2.46,2.46,0,0,1,.4,0,3,3,0,0,1,1.45.61,1,1,0,0,1,.33,1.46A1.86,1.86,0,0,1,36.51,46.18Z"/><path id="_路径_15" data-name="&lt;路径&gt;" class="cls-1" d="M35.63,49.9l-.08-.05a1.79,1.79,0,0,1-.13-.22l-1.23-2.72a3.12,3.12,0,0,1,.32,0,4.36,4.36,0,0,1,1.31.49,1.32,1.32,0,0,1,.07,2.35Z"/><path id="_路径_16" data-name="&lt;路径&gt;" class="cls-1" d="M50.6,52.7a2.72,2.72,0,0,1,0,2.27l0,.06a1,1,0,0,1-.59.45.69.69,0,0,1-.71-.16.87.87,0,0,1-.28-.81.4.4,0,0,1,.13-.21,11,11,0,0,0,1.4-1.57Z"/><path id="_路径_17" data-name="&lt;路径&gt;" class="cls-1" d="M54.31,52.58a3.21,3.21,0,0,1,1.48.83,1.43,1.43,0,0,1,.34.53,1,1,0,0,1-.49,1.19,4.36,4.36,0,0,1-.55.2,5.08,5.08,0,0,1-.4-1.36C54.56,53.55,54.45,53.12,54.31,52.58Z"/><path id="_路径_18" data-name="&lt;路径&gt;" class="cls-1" d="M52,52.83a3.11,3.11,0,0,1,1.38.73,1,1,0,0,1-.22,1.73,3.6,3.6,0,0,1-.49.19,6.28,6.28,0,0,1-.33-1.31C52.21,53.76,52.12,53.35,52,52.83Z"/><path id="_路径_19" data-name="&lt;路径&gt;" class="cls-1" d="M37.85,46.61a.91.91,0,0,1,0-.16s0,0,.06-.05,0,0,0,.05l-.07.15Z"/><path id="_路径_20" data-name="&lt;路径&gt;" class="cls-1" d="M42.39,54.12a17.92,17.92,0,0,1-.83-2.54,1.54,1.54,0,0,1,.3,0,2.83,2.83,0,0,1,1,.4,1.08,1.08,0,0,1,0,1.93A3.65,3.65,0,0,1,42.39,54.12Z"/><path id="_路径_21" data-name="&lt;路径&gt;" class="cls-1" d="M42.42,50.44l-.88-2.51a1.29,1.29,0,0,1,.33,0,6.16,6.16,0,0,1,.84.31,1.71,1.71,0,0,1,.5.38.92.92,0,0,1,0,1.23A1.78,1.78,0,0,1,42.42,50.44Z"/></svg>